name ./resultDataOpenSim/trcMotMarkerGrf/sub10/grf-14-01.mot
datacolumns 19
datarows 30
range 0.45200000 0.56800000
endheader

                time	     ground_force_vx	     ground_force_vy	     ground_force_vz	     ground_force_px	     ground_force_py	     ground_force_pz	   l_ground_force_vx	   l_ground_force_vy	   l_ground_force_vz	   l_ground_force_px	   l_ground_force_py	   l_ground_force_pz	     ground_torque_x	     ground_torque_y	     ground_torque_z	   l_ground_torque_x	   l_ground_torque_y	   l_ground_torque_z	
          0.45200000	         43.62738264	        439.54095676	        -26.98514462	         -0.74537377	          0.00000000	          0.00460101	          0.00000000	          0.00000000	          0.00000000	          0.00000000	          0.00000000	          0.00000000	          0.00000000	          4.57585929	          0.00000000	          0.00000000	          0.00000000	          0.00000000	
          0.45600000	         49.19601543	        453.28319498	        -30.61254363	         -0.74499420	          0.00000000	          0.00486088	          0.00000000	          0.00000000	          0.00000000	          0.00000000	          0.00000000	          0.00000000	          0.00000000	          4.30337638	          0.00000000	          0.00000000	          0.00000000	          0.00000000	
          0.46000000	         54.75459352	        468.43830717	        -33.95955010	         -0.74458979	          0.00000000	          0.00501594	          0.00000000	          0.00000000	          0.00000000	          0.00000000	          0.00000000	          0.00000000	          0.00000000	          4.04226279	          0.00000000	          0.00000000	          0.00000000	          0.00000000	
          0.46400000	         60.30422338	        485.11950907	        -36.78046324	         -0.74418081	          0.00000000	          0.00504523	          0.00000000	          0.00000000	          0.00000000	          0.00000000	          0.00000000	          0.00000000	          0.00000000	          3.82229286	          0.00000000	          0.00000000	          0.00000000	          0.00000000	
          0.46800000	         65.88370064	        503.39552769	        -38.90730833	         -0.74379012	          0.00000000	          0.00494682	          0.00000000	          0.00000000	          0.00000000	          0.00000000	          0.00000000	          0.00000000	          0.00000000	          3.67031084	          0.00000000	          0.00000000	          0.00000000	          0.00000000	
          0.47200000	         71.53883777	        523.29898153	        -40.24649635	         -0.74343292	          0.00000000	          0.00473271	          0.00000000	          0.00000000	          0.00000000	          0.00000000	          0.00000000	          0.00000000	          0.00000000	          3.60619734	          0.00000000	          0.00000000	          0.00000000	          0.00000000	
          0.47600000	         77.28670035	        544.83545279	        -40.76049878	         -0.74313030	          0.00000000	          0.00441948	          0.00000000	          0.00000000	          0.00000000	          0.00000000	          0.00000000	          0.00000000	          0.00000000	          3.63957616	          0.00000000	          0.00000000	          0.00000000	          0.00000000	
          0.48000000	         83.10491462	        567.91735403	        -40.47914651	         -0.74291613	          0.00000000	          0.00402354	          0.00000000	          0.00000000	          0.00000000	          0.00000000	          0.00000000	          0.00000000	          0.00000000	          3.76795745	          0.00000000	          0.00000000	          0.00000000	          0.00000000	
          0.48400000	         88.95135471	        592.24085173	        -39.51314923	         -0.74279133	          0.00000000	          0.00356045	          0.00000000	          0.00000000	          0.00000000	          0.00000000	          0.00000000	          0.00000000	          0.00000000	          3.97693479	          0.00000000	          0.00000000	          0.00000000	          0.00000000	
          0.48800000	         94.77590793	        617.28918342	        -38.03057682	         -0.74266663	          0.00000000	          0.00304537	          0.00000000	          0.00000000	          0.00000000	          0.00000000	          0.00000000	          0.00000000	          0.00000000	          4.24267281	          0.00000000	          0.00000000	          0.00000000	          0.00000000	
          0.49200000	        100.53451624	        642.55697488	        -36.21679712	         -0.74241533	          0.00000000	          0.00249306	          0.00000000	          0.00000000	          0.00000000	          0.00000000	          0.00000000	          0.00000000	          0.00000000	          4.53622675	          0.00000000	          0.00000000	          0.00000000	          0.00000000	
          0.49600000	        106.23871210	        667.77833350	        -34.25017646	         -0.74202011	          0.00000000	          0.00191599	          0.00000000	          0.00000000	          0.00000000	          0.00000000	          0.00000000	          0.00000000	          0.00000000	          4.82856860	          0.00000000	          0.00000000	          0.00000000	          0.00000000	
          0.50000000	        111.97207314	        692.88815062	        -32.29366939	         -0.74160131	          0.00000000	          0.00132215	          0.00000000	          0.00000000	          0.00000000	          0.00000000	          0.00000000	          0.00000000	          0.00000000	          5.09504494	          0.00000000	          0.00000000	          0.00000000	          0.00000000	
          0.50400000	        117.81838815	        717.76087956	        -30.47116671	         -0.74127849	          0.00000000	          0.00071888	          0.00000000	          0.00000000	          0.00000000	          0.00000000	          0.00000000	          0.00000000	          0.00000000	          5.31851432	          0.00000000	          0.00000000	          0.00000000	          0.00000000	
          0.50800000	        123.79321396	        742.01731711	        -28.81792069	         -0.74100991	          0.00000000	          0.00010688	          0.00000000	          0.00000000	          0.00000000	          0.00000000	          0.00000000	          0.00000000	          0.00000000	          5.49105524	          0.00000000	          0.00000000	          0.00000000	          0.00000000	
          0.51200000	        129.86794269	        765.11648043	        -27.25795936	         -0.74067869	          0.00000000	         -0.00052164	          0.00000000	          0.00000000	          0.00000000	          0.00000000	          0.00000000	          0.00000000	          0.00000000	          5.61426136	          0.00000000	          0.00000000	          0.00000000	          0.00000000	
          0.51600000	        136.03441116	        786.66068906	        -25.64275214	         -0.74022523	          0.00000000	         -0.00117167	          0.00000000	          0.00000000	          0.00000000	          0.00000000	          0.00000000	          0.00000000	          0.00000000	          5.69794057	          0.00000000	          0.00000000	          0.00000000	          0.00000000	
          0.52000000	        142.32053985	        806.58356285	        -23.80805259	         -0.73971660	          0.00000000	         -0.00184515	          0.00000000	          0.00000000	          0.00000000	          0.00000000	          0.00000000	          0.00000000	          0.00000000	          5.75712345	          0.00000000	          0.00000000	          0.00000000	          0.00000000	
          0.52400000	        148.75815170	        824.98816712	        -21.60941741	         -0.73926652	          0.00000000	         -0.00254386	          0.00000000	          0.00000000	          0.00000000	          0.00000000	          0.00000000	          0.00000000	          0.00000000	          5.80780526	          0.00000000	          0.00000000	          0.00000000	          0.00000000	
          0.52800000	        155.35416497	        841.82269022	        -18.94708389	         -0.73891452	          0.00000000	         -0.00326487	          0.00000000	          0.00000000	          0.00000000	          0.00000000	          0.00000000	          0.00000000	          0.00000000	          5.86241996	          0.00000000	          0.00000000	          0.00000000	          0.00000000	
          0.53200000	        162.09210966	        856.77176675	        -15.79244784	         -0.73860983	          0.00000000	         -0.00400178	          0.00000000	          0.00000000	          0.00000000	          0.00000000	          0.00000000	          0.00000000	          0.00000000	          5.92622276	          0.00000000	          0.00000000	          0.00000000	          0.00000000	
          0.53600000	        168.95699635	        869.44078095	        -12.20918709	         -0.73829499	          0.00000000	         -0.00474732	          0.00000000	          0.00000000	          0.00000000	          0.00000000	          0.00000000	          0.00000000	          0.00000000	          5.99540788	          0.00000000	          0.00000000	          0.00000000	          0.00000000	
          0.54000000	        175.95753012	        879.56795479	         -8.35334922	         -0.73797380	          0.00000000	         -0.00548977	          0.00000000	          0.00000000	          0.00000000	          0.00000000	          0.00000000	          0.00000000	          0.00000000	          6.05720491	          0.00000000	          0.00000000	          0.00000000	          0.00000000	
          0.54400000	        183.12546630	        887.03430337	         -4.44573897	         -0.73770253	          0.00000000	         -0.00620850	          0.00000000	          0.00000000	          0.00000000	          0.00000000	          0.00000000	          0.00000000	          0.00000000	          6.09174650	          0.00000000	          0.00000000	          0.00000000	          0.00000000	
          0.54800000	        190.49224768	        891.71917158	         -0.73413922	         -0.73753188	          0.00000000	         -0.00687681	          0.00000000	          0.00000000	          0.00000000	          0.00000000	          0.00000000	          0.00000000	          0.00000000	          6.07527268	          0.00000000	          0.00000000	          0.00000000	          0.00000000	
          0.55200000	        198.06204349	        893.40788869	          2.54770879	         -0.73746552	          0.00000000	         -0.00746916	          0.00000000	          0.00000000	          0.00000000	          0.00000000	          0.00000000	          0.00000000	          0.00000000	          5.98411175	          0.00000000	          0.00000000	          0.00000000	          0.00000000	
          0.55600000	        205.80211572	        891.84950756	          5.23189971	         -0.73748431	          0.00000000	         -0.00796311	          0.00000000	          0.00000000	          0.00000000	          0.00000000	          0.00000000	          0.00000000	          0.00000000	          5.79877001	          0.00000000	          0.00000000	          0.00000000	          0.00000000	
          0.56000000	        213.65311571	        886.85561322	          7.26080446	         -0.73759825	          0.00000000	         -0.00833739	          0.00000000	          0.00000000	          0.00000000	          0.00000000	          0.00000000	          0.00000000	          0.00000000	          5.50743438	          0.00000000	          0.00000000	          0.00000000	          0.00000000	
          0.56400000	        221.54121760	        878.27133777	          8.70097711	         -0.73785730	          0.00000000	         -0.00857053	          0.00000000	          0.00000000	          0.00000000	          0.00000000	          0.00000000	          0.00000000	          0.00000000	          5.10833860	          0.00000000	          0.00000000	          0.00000000	          0.00000000	
          0.56800000	        229.38091385	        865.79927521	          9.72567444	         -0.73831109	          0.00000000	         -0.00864112	          0.00000000	          0.00000000	          0.00000000	          0.00000000	          0.00000000	          0.00000000	          0.00000000	          4.61072611	          0.00000000	          0.00000000	          0.00000000	          0.00000000	
